# xmcd CD database file
#
# Track frame offsets:
#	150
#	12493
#	37583
#	79355
#	100575
#	107170
#	149140
#	196180
#	236403
#
# Disc length: 3408 seconds
#
# Revision: 7
# Processed by: cddbd v1.5PL3 Copyright (c) Steve Scherf et al.
# Submitted via: CDex 1.51
#
DISCID=6e0d4e09
DTITLE=Brad Mehldau - Elegiac Cycle
DYEAR=1999
DGENRE=Jazz
TTITLE0=Bard
TTITLE1=Resignation
TTITLE2=Memory's Tricks
TTITLE3=Elegy for William Burroughs and Allen Ginsberg
TTITLE4=Lament for Linus
TTITLE5=Trailer Park Ghost
TTITLE6=Goodbye Storyteller (for Fred Myrow)
TTITLE7=Ruckblick
TTITLE8=The Bard Returns
EXTD=Produced by Brad Meldhau\n9362-47357-2 (P)+(C) 1999 Warner Bros. Record\\r\ns Inc. YEAR: 1999
EXTT0=
EXTT1=
EXTT2=
EXTT3=
EXTT4=
EXTT5=
EXTT6=
EXTT7=
EXTT8=
PLAYORDER=
